PathFileType	4	(X/Y/Z)	joints.trc
DataRate	CameraRate	NumFrames	NumMarkers	Units	OrigDataRate	OrigDataStartFrame	OrigNumFrames
30.0	30.0	14	17	m	30.0	1	100
Frame#	Time	smpl_pelvis			l_smpl_hip			r_smpl_hip			smpl_spine			l_smpl_knee			r_smpl_knee			l_smpl_ankle			r_smpl_ankle			l_smpl_mtp			r_smpl_mtp			smpl_head			l_smpl_shoulder			r_smpl_shoulder			l_smpl_elbow			r_smpl_elbow			l_smpl_hand			r_smpl_hand		
		X1	Y1	Z1	X2	Y2	Z2	X3	Y3	Z3	X4	Y4	Z4	X5	Y5	Z5	X6	Y6	Z6	X7	Y7	Z7	X8	Y8	Z8	X9	Y9	Z9	X10	Y10	Z10	X11	Y11	Z11	X12	Y12	Z12	X13	Y13	Z13	X14	Y14	Z14	X15	Y15	Z15	X16	Y16	Z16	X17	Y17	Z17
1	0.000000	-0.002174	-0.240789	0.028584	0.056408	-0.323069	0.010920	-0.062483	-0.331302	0.015041	0.002266	-0.116386	-0.009801	0.099859	-0.709539	0.018957	-0.105740	-0.714990	0.010198	0.085069	-1.136413	-0.018471	-0.086685	-1.135036	-0.024363	0.126123	-1.196699	0.103571	-0.121524	-1.197142	0.105960	0.001213	0.378176	0.036816	0.199113	0.236808	-0.018070	-0.191692	0.236929	-0.012306	0.454445	0.221159	-0.041017	-0.451820	0.222559	-0.043574	0.720155	0.233857	-0.048391	-0.720928	0.229353	-0.049601
2	0.033333	-0.002174	-0.240789	0.028584	0.056408	-0.323069	0.010920	-0.062483	-0.331302	0.015041	0.002266	-0.116386	-0.009801	0.099859	-0.709539	0.018957	-0.105740	-0.714990	0.010198	0.085069	-1.136413	-0.018471	-0.086685	-1.135036	-0.024363	0.126123	-1.196699	0.103571	-0.121524	-1.197142	0.105960	0.001213	0.378176	0.036816	0.199113	0.236808	-0.018070	-0.191692	0.236929	-0.012306	0.454445	0.221159	-0.041017	-0.451820	0.222559	-0.043574	0.720155	0.233857	-0.048391	-0.720928	0.229353	-0.049601
3	0.066667	-0.001851	-0.243823	0.030814	0.057473	-0.326774	0.014659	-0.062759	-0.335226	0.018895	0.002685	-0.117603	-0.009440	0.100606	-0.714286	0.022805	-0.106222	-0.720647	0.014204	0.085368	-1.146237	-0.015065	-0.086912	-1.145834	-0.020642	0.126671	-1.207170	0.108470	-0.122240	-1.208790	0.111152	0.001865	0.381238	0.036350	0.201835	0.238601	-0.020232	-0.194193	0.238796	-0.013640	0.462075	0.222884	-0.043828	-0.460060	0.224597	-0.045252	0.732595	0.236033	-0.051265	-0.734290	0.232123	-0.051502
4	0.100000	-0.002564	-0.241832	0.030522	0.056581	-0.324297	0.013629	-0.063300	-0.332569	0.017928	0.001915	-0.116865	-0.009793	0.099695	-0.709310	0.022228	-0.106094	-0.715067	0.013269	0.084586	-1.137556	-0.015338	-0.086942	-1.136145	-0.021582	0.125540	-1.198094	0.107420	-0.122497	-1.197995	0.109643	0.001609	0.377414	0.036366	0.200692	0.237841	-0.018883	-0.193092	0.237472	-0.013262	0.457552	0.221963	-0.042983	-0.455420	0.223126	-0.045813	0.726877	0.235379	-0.049967	-0.727469	0.230055	-0.051568
5	0.133333	-0.002174	-0.240789	0.028584	0.056408	-0.323069	0.010920	-0.062483	-0.331302	0.015041	0.002266	-0.116386	-0.009801	0.099859	-0.709539	0.018957	-0.105740	-0.714990	0.010198	0.085069	-1.136413	-0.018471	-0.086685	-1.135036	-0.024363	0.126123	-1.196699	0.103571	-0.121524	-1.197142	0.105960	0.001213	0.378176	0.036816	0.199113	0.236808	-0.018070	-0.191692	0.236929	-0.012306	0.454445	0.221159	-0.041017	-0.451820	0.222559	-0.043574	0.720155	0.233857	-0.048391	-0.720928	0.229353	-0.049601
6	0.166667	-0.002174	-0.240789	0.028584	0.056408	-0.323069	0.010920	-0.062483	-0.331302	0.015041	0.002266	-0.116386	-0.009801	0.099859	-0.709539	0.018957	-0.105740	-0.714990	0.010198	0.085069	-1.136413	-0.018471	-0.086685	-1.135036	-0.024363	0.126123	-1.196699	0.103571	-0.121524	-1.197142	0.105960	0.001213	0.378176	0.036816	0.199113	0.236808	-0.018070	-0.191692	0.236929	-0.012306	0.454445	0.221159	-0.041017	-0.451820	0.222559	-0.043574	0.720155	0.233857	-0.048391	-0.720928	0.229353	-0.049601
7	0.200000	-0.002174	-0.240789	0.028584	0.056408	-0.323069	0.010920	-0.062483	-0.331302	0.015041	0.002266	-0.116386	-0.009801	0.099859	-0.709539	0.018957	-0.105740	-0.714990	0.010198	0.085069	-1.136413	-0.018471	-0.086685	-1.135036	-0.024363	0.126123	-1.196699	0.103571	-0.121524	-1.197142	0.105960	0.001213	0.378176	0.036816	0.199113	0.236808	-0.018070	-0.191692	0.236929	-0.012306	0.454445	0.221159	-0.041017	-0.451820	0.222559	-0.043574	0.720155	0.233857	-0.048391	-0.720928	0.229353	-0.049601
8	0.233333	-0.002200	-0.229914	0.029323	0.054967	-0.308581	0.013225	-0.061456	-0.316779	0.017950	0.001971	-0.110528	-0.008897	0.094363	-0.667977	0.020559	-0.099966	-0.673048	0.013168	0.080260	-1.060786	-0.015590	-0.082262	-1.058535	-0.020338	0.117070	-1.116427	0.099621	-0.114020	-1.115542	0.102451	0.001429	0.348831	0.031149	0.195398	0.222606	-0.017643	-0.187615	0.222514	-0.012320	0.431813	0.210204	-0.039420	-0.429617	0.212534	-0.042324	0.681267	0.221630	-0.046996	-0.681571	0.217938	-0.047939
9	0.266667	-0.002565	-0.237399	0.029385	0.055741	-0.319529	0.011433	-0.062511	-0.327739	0.015448	0.001945	-0.113437	-0.009242	0.100634	-0.713372	0.019927	-0.106859	-0.718743	0.010649	0.085770	-1.149915	-0.017401	-0.087451	-1.148386	-0.023750	0.127218	-1.211094	0.105868	-0.123128	-1.211512	0.107748	0.000683	0.379640	0.036033	0.200859	0.239814	-0.017226	-0.193350	0.239960	-0.011970	0.459763	0.223085	-0.041284	-0.456980	0.224246	-0.044172	0.730119	0.236340	-0.048248	-0.729981	0.230877	-0.049913
10	0.300000	-0.002174	-0.240789	0.028584	0.056408	-0.323069	0.010920	-0.062483	-0.331302	0.015041	0.002266	-0.116386	-0.009801	0.099859	-0.709539	0.018957	-0.105740	-0.714990	0.010198	0.085069	-1.136413	-0.018471	-0.086685	-1.135036	-0.024363	0.126123	-1.196699	0.103571	-0.121524	-1.197142	0.105960	0.001213	0.378176	0.036816	0.199113	0.236808	-0.018070	-0.191692	0.236929	-0.012306	0.454445	0.221159	-0.041017	-0.451820	0.222559	-0.043574	0.720155	0.233857	-0.048391	-0.720928	0.229353	-0.049601
11	0.333333	-0.002174	-0.240789	0.028584	0.056408	-0.323069	0.010920	-0.062483	-0.331302	0.015041	0.002266	-0.116386	-0.009801	0.099859	-0.709539	0.018957	-0.105740	-0.714990	0.010198	0.085069	-1.136413	-0.018471	-0.086685	-1.135036	-0.024363	0.126123	-1.196699	0.103571	-0.121524	-1.197142	0.105960	0.001213	0.378176	0.036816	0.199113	0.236808	-0.018070	-0.191692	0.236929	-0.012306	0.454445	0.221159	-0.041017	-0.451820	0.222559	-0.043574	0.720155	0.233857	-0.048391	-0.720928	0.229353	-0.049601
12	0.366667	-0.002174	-0.240789	0.028584	0.056408	-0.323069	0.010920	-0.062483	-0.331302	0.015041	0.002266	-0.116386	-0.009801	0.099859	-0.709539	0.018957	-0.105740	-0.714990	0.010198	0.085069	-1.136413	-0.018471	-0.086685	-1.135036	-0.024363	0.126123	-1.196699	0.103571	-0.121524	-1.197142	0.105960	0.001213	0.378176	0.036816	0.199113	0.236808	-0.018070	-0.191692	0.236929	-0.012306	0.454445	0.221159	-0.041017	-0.451820	0.222559	-0.043574	0.720155	0.233857	-0.048391	-0.720928	0.229353	-0.049601
13	0.400000	-0.002174	-0.240789	0.028584	0.056408	-0.323069	0.010920	-0.062483	-0.331302	0.015041	0.002266	-0.116386	-0.009801	0.099859	-0.709539	0.018957	-0.105740	-0.714990	0.010198	0.085069	-1.136413	-0.018471	-0.086685	-1.135036	-0.024363	0.126123	-1.196699	0.103571	-0.121524	-1.197142	0.105960	0.001213	0.378176	0.036816	0.199113	0.236808	-0.018070	-0.191692	0.236929	-0.012306	0.454445	0.221159	-0.041017	-0.451820	0.222559	-0.043574	0.720155	0.233857	-0.048391	-0.720928	0.229353	-0.049601
14	0.433333	-0.002174	-0.240789	0.028584	0.056408	-0.323069	0.010920	-0.062483	-0.331302	0.015041	0.002266	-0.116386	-0.009801	0.099859	-0.709539	0.018957	-0.105740	-0.714990	0.010198	0.085069	-1.136413	-0.018471	-0.086685	-1.135036	-0.024363	0.126123	-1.196699	0.103571	-0.121524	-1.197142	0.105960	0.001213	0.378176	0.036816	0.199113	0.236808	-0.018070	-0.191692	0.236929	-0.012306	0.454445	0.221159	-0.041017	-0.451820	0.222559	-0.043574	0.720155	0.233857	-0.048391	-0.720928	0.229353	-0.049601
